<svg width="1428" height="414" viewBox="0 0 1428 414" fill="none" xmlns="http://www.w3.org/2000/svg">
<path d="M582 344L550.84 255.08H471.8L440.64 344H404.54L492.32 91.68H530.32L618.1 344H582ZM511.32 140.7L482.44 223.16H539.82L511.32 140.7ZM701.727 188.2V344H669.427V188.2H640.927V154H669.427V91.3H701.727V154H730.227V188.2H701.727ZM821.59 188.2V344H789.29V188.2H760.79V154H789.29V91.3H821.59V154H850.09V188.2H821.59ZM969.193 190.48C963.113 187.693 957.666 186.3 952.853 186.3C942.72 186.3 934.36 189.847 927.773 196.94C920.68 204.54 917.133 213.28 917.133 223.16V344H884.453V223.16C884.453 209.48 887.873 196.94 894.713 185.54C901.806 174.14 911.433 165.273 923.593 158.94C932.713 154.633 942.466 152.48 952.853 152.48C961.213 152.48 969.193 154 976.793 157.04C984.393 160.08 992.373 165.02 1000.73 171.86L969.193 190.48ZM1154.88 344V315.12C1146.77 324.493 1137.4 331.967 1126.76 337.54C1116.12 343.113 1104.84 345.9 1092.94 345.9C1079.76 345.9 1067.35 343.493 1055.7 338.68C1044.3 333.867 1034.16 327.027 1025.3 318.16C1016.43 309.547 1009.46 299.413 1004.4 287.76C999.583 275.853 997.177 263.44 997.177 250.52C997.177 237.6 999.583 225.313 1004.4 213.66C1009.46 201.753 1016.43 191.367 1025.3 182.5C1034.16 173.633 1044.3 166.793 1055.7 161.98C1067.35 157.167 1079.76 154.76 1092.94 154.76C1105.1 154.76 1116.5 157.293 1127.14 162.36C1138.03 167.427 1147.28 174.52 1154.88 183.64V158.56H1189.08V344H1154.88ZM1092.94 188.58C1084.58 188.58 1076.47 190.227 1068.62 193.52C1061.02 196.56 1054.43 200.867 1048.86 206.44C1043.28 212.013 1038.85 218.727 1035.56 226.58C1032.52 234.18 1031 242.16 1031 250.52C1031 258.88 1032.52 266.86 1035.56 274.46C1038.85 282.06 1043.28 288.647 1048.86 294.22C1054.43 299.793 1061.02 304.227 1068.62 307.52C1076.47 310.56 1084.58 312.08 1092.94 312.08C1101.3 312.08 1109.28 310.56 1116.88 307.52C1124.48 304.227 1131.06 299.793 1136.64 294.22C1142.21 288.647 1146.52 282.06 1149.56 274.46C1152.85 266.86 1154.5 258.88 1154.5 250.52C1154.5 242.16 1152.85 234.18 1149.56 226.58C1146.52 218.727 1142.21 212.013 1136.64 206.44C1131.06 200.867 1124.48 196.56 1116.88 193.52C1109.28 190.227 1101.3 188.58 1092.94 188.58ZM1374.41 344L1317.79 250.52L1260.79 344H1221.27L1298.03 217.84L1221.27 91.3H1260.79L1317.79 185.16L1374.79 91.3H1414.31L1337.55 217.46L1414.31 344H1374.41Z" fill="black"/>
<mask id="mask0_3197_3414" style="mask-type:alpha" maskUnits="userSpaceOnUse" x="0" y="0" width="344" height="344">
<path d="M200.366 239.366L189.405 262.852C196.887 273.842 204.309 284.945 208.667 292.004C218.452 307.853 222.775 335.137 223.77 342.262C223.91 343.265 224.764 344.004 225.776 344.004H302C303.104 344.004 304 343.108 304 342.004V265.78C304 264.767 303.261 263.914 302.258 263.773C295.133 262.779 267.849 258.456 252 248.671C244.841 244.251 233.523 236.679 222.382 229.091L200.366 239.366ZM62.332 238.343C44.6448 249.263 3.42103 262.678 0.496094 263.623C0.41483 263.649 0.404455 263.748 0.464844 263.809C0.536499 263.881 0.485462 264.004 0.383789 264.004H0.193359C0.0866879 264.004 0 264.091 0 264.197V342.004C0 343.108 0.895546 344.004 2 344.004H79.8066C79.9133 344.004 80 343.917 80 343.811V343.623C80.0003 343.52 80.1253 343.469 80.1982 343.542C80.2596 343.603 80.3591 343.592 80.3857 343.51C81.3361 340.569 94.7473 299.359 105.665 281.676C108.523 277.047 112.061 271.316 115.754 265.333L103.634 239.366L79.1699 227.948C73.0089 231.752 67.0883 235.406 62.332 238.343ZM143.992 98L144 98.0078V114C144 116.12 143.767 118.674 143.362 121.511C138.853 153.146 113.146 178.853 81.5107 183.362C78.6744 183.767 76.1201 184 74 184H58L50 192L58 200C58 200 58 200 74 200C75.6312 200 77.5198 200.138 79.5957 200.386C108.42 203.826 130.358 225.817 141.543 252.615C141.648 253.072 141.75 253.532 141.846 253.993C143.135 260.215 144 265.914 144 270V285.992L143.992 286L151.992 294L159.992 286H160C160 286 160 286 160 270C160 265.942 160.855 260.294 162.129 254.122C172.221 230.826 190.827 212.22 214.123 202.128C220.294 200.854 225.942 200 230 200H246L254 192L246 184H230C225.914 184 220.215 183.135 213.993 181.846C213.532 181.75 213.073 181.647 212.616 181.542C185.818 170.357 163.826 148.42 160.386 119.596C160.138 117.52 160 115.631 160 114V98H159.992L151.992 90L143.992 98ZM2 40C0.895546 40.0001 1.61051e-08 40.8955 0 42V118.541C0 119.41 0.536741 120.172 1.3623 120.443C8.88418 122.91 45.5821 135.197 62 145.333C66.3941 148.046 71.7825 151.371 77.4355 154.86L103.634 142.634L115.165 117.926C111.565 112.094 108.124 106.521 105.333 102C95.1965 85.582 82.9104 48.8839 80.4434 41.3623C80.1724 40.5367 79.4099 40.0001 78.541 40H2ZM248 0.00390625L247.175 2.88965C243.393 15.9255 227.113 70.0635 208.686 101.98C203.31 111.291 197.855 119.367 192.712 126.231L200.366 142.634L218.298 151.002C225.12 145.873 233.044 140.496 242.02 135.314C276.943 115.152 343.782 96.0662 344 96.0039L343.998 96.002L343.999 96L344 95.999V2C344 0.895554 343.104 0.000200058 342 0H248.003C248.001 0.000187863 248 0.00214165 248 0.00390625Z" fill="white"/>
</mask>
<g mask="url(#mask0_3197_3414)">
<path d="M200.366 239.366L189.405 262.852C196.887 273.842 204.309 284.945 208.667 292.004C218.452 307.853 222.775 335.137 223.77 342.262C223.91 343.265 224.764 344.004 225.776 344.004H302C303.104 344.004 304 343.108 304 342.004V265.78C304 264.767 303.261 263.914 302.258 263.773C295.133 262.779 267.849 258.456 252 248.671C244.841 244.251 233.523 236.679 222.382 229.091L200.366 239.366ZM62.332 238.343C44.6448 249.263 3.42103 262.678 0.496094 263.623C0.41483 263.649 0.404455 263.748 0.464844 263.809C0.536499 263.881 0.485462 264.004 0.383789 264.004H0.193359C0.0866879 264.004 0 264.091 0 264.197V342.004C0 343.108 0.895546 344.004 2 344.004H79.8066C79.9133 344.004 80 343.917 80 343.811V343.623C80.0003 343.52 80.1253 343.469 80.1982 343.542C80.2596 343.603 80.3591 343.592 80.3857 343.51C81.3361 340.569 94.7473 299.359 105.665 281.676C108.523 277.047 112.061 271.316 115.754 265.333L103.634 239.366L79.1699 227.948C73.0089 231.752 67.0883 235.406 62.332 238.343ZM143.992 98L144 98.0078V114C144 116.12 143.767 118.674 143.362 121.511C138.853 153.146 113.146 178.853 81.5107 183.362C78.6744 183.767 76.1201 184 74 184H58L50 192L58 200C58 200 58 200 74 200C75.6312 200 77.5198 200.138 79.5957 200.386C108.42 203.826 130.358 225.817 141.543 252.615C141.648 253.072 141.75 253.532 141.846 253.993C143.135 260.215 144 265.914 144 270V285.992L143.992 286L151.992 294L159.992 286H160C160 286 160 286 160 270C160 265.942 160.855 260.294 162.129 254.122C172.221 230.826 190.827 212.22 214.123 202.128C220.294 200.854 225.942 200 230 200H246L254 192L246 184H230C225.914 184 220.215 183.135 213.993 181.846C213.532 181.75 213.073 181.647 212.616 181.542C185.818 170.357 163.826 148.42 160.386 119.596C160.138 117.52 160 115.631 160 114V98H159.992L151.992 90L143.992 98ZM2 40C0.895546 40.0001 1.61051e-08 40.8955 0 42V118.541C0 119.41 0.536741 120.172 1.3623 120.443C8.88418 122.91 45.5821 135.197 62 145.333C66.3941 148.046 71.7825 151.371 77.4355 154.86L103.634 142.634L115.165 117.926C111.565 112.094 108.124 106.521 105.333 102C95.1965 85.582 82.9104 48.8839 80.4434 41.3623C80.1724 40.5367 79.4099 40.0001 78.541 40H2ZM248 0.00390625L247.175 2.88965C243.393 15.9255 227.113 70.0635 208.686 101.98C203.31 111.291 197.855 119.367 192.712 126.231L200.366 142.634L218.298 151.002C225.12 145.873 233.044 140.496 242.02 135.314C276.943 115.152 343.782 96.0662 344 96.0039L343.998 96.002L343.999 96L344 95.999V2C344 0.895554 343.104 0.000200058 342 0H248.003C248.001 0.000187863 248 0.00214165 248 0.00390625Z" fill="url(#paint0_linear_3197_3414)"/>
</g>
<defs>
<linearGradient id="paint0_linear_3197_3414" x1="-2.04815e-05" y1="344" x2="344" y2="-9.99117e-06" gradientUnits="userSpaceOnUse">
<stop stop-color="#FB5F58"/>
<stop offset="0.158654" stop-color="#FE2F4C"/>
<stop offset="0.451923" stop-color="#F9072F"/>
<stop offset="0.706731" stop-color="#FD6F29"/>
<stop offset="1" stop-color="#F6A17E"/>
</linearGradient>
</defs>
</svg>
