<svg width="1560" height="387" viewBox="0 0 1560 387" fill="none" xmlns="http://www.w3.org/2000/svg">
<path d="M660.576 233.288V335.528H518.304V233.288H660.576ZM593.76 69.416C596.064 74.408 598.464 80.264 600.96 86.984C603.456 93.704 605.568 99.848 607.296 105.416H673.824V128.456H630.624L653.664 135.944C650.4 143.048 646.752 150.344 642.72 157.832C638.88 165.32 634.752 172.712 630.336 180.008H683.616V203.624H496.992V180.008H551.136C548.064 173.672 544.608 167.144 540.768 160.424C536.928 153.704 532.8 146.984 528.384 140.264L549.696 128.744C551.616 131.816 553.728 135.272 556.032 139.112C558.336 142.76 560.544 146.504 562.656 150.344C564.768 153.992 566.784 157.64 568.704 161.288C570.624 164.744 572.256 167.912 573.6 170.792L554.592 180.008H602.4C607.392 172.328 612.096 164.264 616.512 155.816C621.12 147.176 625.44 138.056 629.472 128.456H509.664V105.416H581.376C579.84 100.808 578.016 96.008 575.904 91.016C573.984 85.832 571.968 80.84 569.856 76.04L593.76 69.416ZM412.896 205.928C425.76 188.648 437.952 168.872 449.472 146.6C460.992 124.136 470.88 100.04 479.136 74.312L504.48 78.92C500.832 89.48 496.896 99.944 492.672 110.312C488.64 120.488 484.32 130.664 479.712 140.84V343.304H455.232V188.072C451.584 194.216 447.84 200.264 444 206.216C440.352 211.976 436.608 217.544 432.768 222.92L412.896 205.928ZM543.648 312.488H635.808V256.04H543.648V312.488ZM834.528 68.264C836.256 70.568 838.08 73.256 840 76.328C842.112 79.208 844.128 82.28 846.048 85.544C847.968 88.616 849.792 91.784 851.52 95.048C853.44 98.12 855.072 101 856.416 103.688H886.08C888.576 100.232 890.88 97.064 892.992 94.184C895.104 91.112 897.024 88.136 898.752 85.256C900.672 82.376 902.496 79.496 904.224 76.616C906.144 73.544 908.16 70.184 910.272 66.536L930.432 76.04C927.744 81.224 924.864 86.12 921.792 90.728C918.912 95.336 916.032 99.656 913.152 103.688H967.872V124.712H882.912C882.336 126.632 881.76 128.648 881.184 130.76C880.8 132.68 880.224 134.792 879.456 137.096L876.576 146.024H944.832V284.84H800.832V146.024H851.232C852.576 142.76 853.728 139.496 854.688 136.232L857.856 124.712H782.112V103.688H831.36C829.824 101.192 828.288 98.6 826.752 95.912C825.216 93.224 823.68 90.728 822.144 88.424C820.608 85.928 819.168 83.72 817.824 81.8C816.672 79.88 815.712 78.44 814.944 77.48L834.528 68.264ZM742.08 273.032V193.544H708.672V169.64H766.272V275.624C771.648 280.616 777.408 285.032 783.552 288.872C789.696 292.712 796.608 295.976 804.288 298.664C811.968 301.352 820.416 303.464 829.632 305C839.04 306.728 849.504 307.88 861.024 308.456C869.28 309.032 878.112 309.32 887.52 309.32C896.928 309.512 906.432 309.512 916.032 309.32C925.632 309.128 935.136 308.744 944.544 308.168C954.144 307.592 963.264 306.92 971.904 306.152L967.872 330.92C954.24 332.072 938.208 332.84 919.776 333.224C901.344 333.608 880.608 333.224 857.568 332.072C833.952 330.728 813.888 327.08 797.376 321.128C781.056 315.368 766.848 307.4 754.752 297.224L722.496 336.968L705.216 317.384L742.08 273.032ZM920.064 265.544V243.656H825.6V265.544H920.064ZM825.6 224.936H920.064V203.912H825.6V224.936ZM825.6 185.48H920.064V164.744H825.6V185.48ZM735.456 76.328C738.336 79.592 741.504 83.432 744.96 87.848C748.608 92.264 752.544 97.448 756.768 103.4C760.992 109.352 764.64 114.728 767.712 119.528C770.784 124.136 773.376 128.264 775.488 131.912L754.176 146.6C752.064 142.76 749.472 138.536 746.4 133.928C743.328 129.128 739.68 123.752 735.456 117.8C731.232 111.848 727.392 106.664 723.936 102.248C720.48 97.64 717.408 93.704 714.72 90.44L735.456 76.328ZM1146.43 86.12V173.672H1047.07L1043.33 213.128H1145.57C1145.18 229.448 1144.7 244.904 1144.13 259.496C1143.55 274.088 1142.59 287.432 1141.25 299.528C1140.48 305.672 1139.42 310.664 1138.08 314.504C1136.74 318.536 1134.53 321.704 1131.46 324.008C1128.58 326.504 1124.54 328.424 1119.36 329.768C1114.37 331.112 1107.84 332.168 1099.78 332.936C1096.32 333.32 1092 333.608 1086.82 333.8C1081.82 333.992 1076.74 334.088 1071.55 334.088C1066.37 334.28 1061.47 334.376 1056.86 334.376C1052.26 334.376 1048.7 334.376 1046.21 334.376L1041.6 308.744C1044.48 309.128 1048.13 309.32 1052.54 309.32C1057.15 309.512 1061.86 309.608 1066.66 309.608C1071.46 309.8 1076.06 309.896 1080.48 309.896C1085.09 309.896 1088.83 309.8 1091.71 309.608C1096.7 309.416 1100.64 309.128 1103.52 308.744C1106.59 308.36 1108.9 307.592 1110.43 306.44C1112.16 305.288 1113.31 303.56 1113.89 301.256C1114.66 298.76 1115.33 295.496 1115.9 291.464C1116.67 284.744 1117.34 276.584 1117.92 266.984C1118.5 257.192 1118.78 247.496 1118.78 237.896H1015.39L1022.59 150.632H1120.51V109.736H1016.83V86.12H1146.43ZM1230.24 75.176V340.712H1204.03V75.176H1230.24ZM1283.81 323.72C1295.9 315.08 1306.56 307.016 1315.78 299.528C1324.99 291.848 1332.96 284.264 1339.68 276.776C1346.4 269.096 1351.97 261.224 1356.38 253.16C1360.99 245.096 1364.74 236.264 1367.62 226.664C1370.69 217.064 1372.99 206.504 1374.53 194.984C1376.06 183.464 1377.31 170.408 1378.27 155.816H1293.6V129.32H1379.42C1379.81 119.912 1380 110.312 1380 100.52C1380 90.728 1380.1 81.32 1380.29 72.296H1406.21C1406.21 80.168 1406.11 89.384 1405.92 99.944C1405.92 110.312 1405.73 120.104 1405.34 129.32H1524C1523.42 160.04 1522.66 189.416 1521.7 217.448C1520.74 245.48 1519.39 270.152 1517.66 291.464C1517.09 298.952 1515.94 305.288 1514.21 310.472C1512.48 315.656 1509.98 319.976 1506.72 323.432C1503.65 326.888 1499.71 329.48 1494.91 331.208C1490.11 333.128 1484.26 334.376 1477.34 334.952C1469.28 335.912 1460.74 336.488 1451.71 336.68C1442.69 337.064 1434.14 337.064 1426.08 336.68L1420.32 308.456C1428.38 309.032 1436.35 309.416 1444.22 309.608C1452.1 309.8 1460.35 309.704 1468.99 309.32C1473.79 309.128 1477.63 308.648 1480.51 307.88C1483.39 307.112 1485.7 305.672 1487.42 303.56C1489.15 301.448 1490.3 298.472 1490.88 294.632C1491.65 290.792 1492.32 285.608 1492.9 279.08C1493.47 270.824 1493.95 261.8 1494.34 252.008C1494.91 242.024 1495.39 231.656 1495.78 220.904C1496.16 210.152 1496.45 199.304 1496.64 188.36C1496.83 177.224 1497.02 166.376 1497.22 155.816H1404.19C1403.23 172.52 1401.79 187.496 1399.87 200.744C1397.95 213.992 1395.36 226.088 1392.1 237.032C1388.83 247.976 1384.7 258.056 1379.71 267.272C1374.72 276.296 1368.67 285.032 1361.57 293.48C1354.46 301.928 1346.02 310.28 1336.22 318.536C1326.43 326.984 1315.1 335.912 1302.24 345.32L1283.81 323.72Z" fill="black"/>
<mask id="mask0_3197_3303" style="mask-type:alpha" maskUnits="userSpaceOnUse" x="0" y="0" width="344" height="344">
<path d="M200.367 239.366L189.406 262.853C196.887 273.843 204.31 284.945 208.668 292.004C218.453 307.853 222.776 335.137 223.771 342.262C223.911 343.265 224.765 344.004 225.777 344.004H302.001C303.105 344.004 304.001 343.108 304.001 342.004V265.78C304.001 264.767 303.262 263.914 302.259 263.773C295.134 262.779 267.85 258.456 252.001 248.671C244.842 244.251 233.525 236.679 222.384 229.091L200.367 239.366ZM62.3369 238.343C44.6499 249.263 3.42675 262.678 0.500977 263.623C0.41983 263.65 0.409424 263.748 0.469727 263.809C0.541275 263.881 0.490245 264.004 0.388672 264.004H0.195312C0.0881901 264.004 0.00106487 264.091 0.000976562 264.198V342.004C0.000976562 343.108 0.896574 344.004 2.00098 344.004H79.8066C79.9138 344.004 80.0009 343.917 80.001 343.81V343.623C80.001 343.519 80.1273 343.466 80.2012 343.54C80.2631 343.602 80.3635 343.592 80.3906 343.509C81.3443 340.558 94.7537 299.357 105.67 281.676C108.527 277.048 112.064 271.318 115.756 265.337L103.635 239.366L79.1738 227.949C73.0133 231.752 67.0928 235.406 62.3369 238.343ZM143.993 98L144.001 98.0078V114C144.001 116.12 143.768 118.674 143.363 121.511C138.854 153.146 113.147 178.853 81.5117 183.362C78.6754 183.767 76.1211 184 74.001 184H58.001L50.001 192L58.001 200C58.001 200 58.001 200 74.001 200C75.6322 200 77.5208 200.138 79.5967 200.386C108.421 203.826 130.359 225.817 141.544 252.615C141.649 253.072 141.751 253.532 141.847 253.993C143.136 260.215 144.001 265.914 144.001 270V285.992L143.993 286L151.993 294L159.993 286H160.001C160.001 286 160.001 286 160.001 270C160.001 265.942 160.856 260.294 162.13 254.122C172.222 230.826 190.828 212.22 214.124 202.128C220.295 200.854 225.943 200 230.001 200H246.001L254.001 192L246.001 184H230.001C225.915 184 220.216 183.135 213.994 181.846C213.533 181.75 213.074 181.647 212.617 181.542C185.819 170.357 163.827 148.42 160.387 119.596C160.139 117.52 160.001 115.631 160.001 114V98H159.993L151.993 90L143.993 98ZM2.00098 40C0.896574 40.0002 0.000976562 40.8956 0.000976562 42V118C0.000976563 118.05 0.00518547 118.099 0.00878906 118.148V118.541C0.00878906 119.41 0.545587 120.172 1.37109 120.443C8.89318 122.911 45.5909 135.197 62.0088 145.333C66.4018 148.045 71.7889 151.37 77.4404 154.858L103.635 142.634L115.17 117.919C111.571 112.09 108.132 106.519 105.342 102C95.2053 85.582 82.9192 48.8839 80.4521 41.3623C80.1812 40.5368 79.4187 40.0001 78.5498 40H2.00098ZM248 0.00390625L247.175 2.88965C243.393 15.9258 227.113 70.0637 208.686 101.98C203.31 111.291 197.856 119.366 192.713 126.23L200.367 142.634L218.299 151.002C225.121 145.873 233.044 140.496 242.02 135.314C276.923 115.163 343.706 96.0879 344 96.0039L343.999 96.002H343.998L343.999 96L344 95.999V2C344 0.895431 343.105 0 342 0H248.004C248.002 0.00023068 248 0.00213379 248 0.00390625Z" fill="white"/>
</mask>
<g mask="url(#mask0_3197_3303)">
<path d="M200.366 239.366L189.405 262.852C196.887 273.842 204.309 284.945 208.667 292.004C218.452 307.853 222.775 335.137 223.77 342.262C223.91 343.265 224.764 344.004 225.776 344.004H302C303.104 344.004 304 343.108 304 342.004V265.78C304 264.767 303.261 263.914 302.258 263.773C295.133 262.779 267.849 258.456 252 248.671C244.841 244.251 233.523 236.679 222.382 229.091L200.366 239.366ZM62.3359 238.343C44.6487 249.263 3.42494 262.678 0.5 263.623C0.418736 263.649 0.408361 263.748 0.46875 263.809C0.540405 263.881 0.489368 264.004 0.387695 264.004H0.194336C0.0871623 264.004 8.82863e-05 264.091 0 264.198V342.004C0 343.108 0.895546 344.004 2 344.004H79.8057C79.9128 344.004 79.9999 343.917 80 343.81V343.623C80 343.519 80.1263 343.466 80.2002 343.54C80.2622 343.602 80.3625 343.592 80.3896 343.509C81.3432 340.558 94.7527 299.357 105.669 281.676C108.526 277.048 112.063 271.318 115.755 265.337L103.634 239.366L79.1729 227.949C73.0122 231.752 67.0919 235.406 62.3359 238.343ZM143.992 98L144 98.0078V114C144 116.12 143.767 118.674 143.362 121.511C138.853 153.146 113.146 178.853 81.5107 183.362C78.6744 183.767 76.1201 184 74 184H58L50 192L58 200C58 200 58 200 74 200C75.6312 200 77.5198 200.138 79.5957 200.386C108.42 203.826 130.358 225.817 141.543 252.615C141.648 253.072 141.75 253.532 141.846 253.993C143.135 260.215 144 265.914 144 270V285.992L143.992 286L151.992 294L159.992 286H160C160 286 160 286 160 270C160 265.942 160.855 260.294 162.129 254.122C172.221 230.826 190.827 212.22 214.123 202.128C220.294 200.854 225.942 200 230 200H246L254 192L246 184H230C225.914 184 220.215 183.135 213.993 181.846C213.532 181.75 213.073 181.647 212.616 181.542C185.818 170.357 163.826 148.42 160.386 119.596C160.138 117.52 160 115.631 160 114V98H159.992L151.992 90L143.992 98ZM2 40C0.895546 40.0001 0 40.8955 0 42V118C7.28789e-10 118.05 0.00420877 118.099 0.0078125 118.148V118.541C0.0078125 119.41 0.544554 120.172 1.37012 120.443C8.892 122.91 45.5899 135.197 62.0078 145.333C66.4009 148.045 71.7878 151.369 77.4395 154.858L103.634 142.634L115.169 117.919C111.57 112.09 108.131 106.519 105.341 102C95.2043 85.582 82.9182 48.8839 80.4512 41.3623C80.1802 40.5367 79.4177 40.0001 78.5488 40H2ZM248 0.00390625L247.175 2.88965C243.393 15.9255 227.113 70.0635 208.686 101.98C203.31 111.291 197.855 119.367 192.712 126.231L200.366 142.634L218.298 151.002C225.12 145.873 233.044 140.496 242.02 135.314C276.943 115.152 343.782 96.0662 344 96.0039L343.998 96.002L343.999 96L344 95.999V2C344 0.895554 343.104 0.000200058 342 0H248.003C248.001 0.000187863 248 0.00214165 248 0.00390625Z" fill="url(#paint0_linear_3197_3303)"/>
</g>
<defs>
<linearGradient id="paint0_linear_3197_3303" x1="-2.04815e-05" y1="344" x2="344" y2="-9.99117e-06" gradientUnits="userSpaceOnUse">
<stop stop-color="#FB5F58"/>
<stop offset="0.158654" stop-color="#FE2F4C"/>
<stop offset="0.451923" stop-color="#F9072F"/>
<stop offset="0.706731" stop-color="#FD6F29"/>
<stop offset="1" stop-color="#F6A17E"/>
</linearGradient>
</defs>
</svg>
